<?xml version="1.0" encoding="iso-8859-1"?>
<!-- Generator: Adobe Illustrator 19.1.0, SVG Export Plug-In . SVG Version: 6.00 Build 0)  -->
<svg version="1.1" id="Capa_1" xmlns="http://www.w3.org/2000/svg" xmlns:xlink="http://www.w3.org/1999/xlink" x="0px" y="0px"
	 viewBox="0 0 343.564 343.564" style="enable-background:new 0 0 343.564 343.564;" xml:space="preserve">
<g>
	<path id="rect3000" style="fill:#222222;" d="M173.154,42.782c-4.879-0.007-9.747,0.015-14.625,0.062
		c-26.215,0.454-52.593,1.091-78.562,4.719c-8.962,4.556-13.559,14.557-19.156,22.469c-10.121,16.935-14.83,36.395-20.406,55.094
		c-2.339,2.543-3.939,6.082-6.562,8.219c-2.347-0.567,0.17-5.86-0.406-8.375c1.374-7.769-7.925-12.499-14.406-9.531
		C12.471,117.973,2.53,118.644,0,126.377c-0.066,8.768,8.979,15.333,17.438,14.25c3.893,0.635,5.543,5.487,7.938,8.156
		c0.203,14.162-3.015,28.359-2.219,42.625c0.409,9.027-0.495,18.522,2.281,27.188c0.782,0.824,1.532,1.063,2.25,0.969
		c-0.157,0.517-0.281,1.047-0.281,1.594v73.5c0.002,3.206,2.919,6.125,6.125,6.125h24.5c3.206-0.002,6.125-2.919,6.125-6.125
		v-25.344h215.094v25.344c0,3.206,2.919,6.123,6.125,6.125h24.5c3.207-0.002,6.123-2.919,6.125-6.125v-73.5
		c0-0.581-0.105-1.142-0.281-1.688c4.407,0.024,3.294-7.081,4-10.25c0.747-19.036,0.695-38.405-2.281-57.156
		c0.502-4.539,4.483-8.732,7.844-11.312c8.095,0.399,17.037-4.245,18.281-12.906c-1.145-8.044-11.232-9.686-17.562-12
		c-5.729-2.37-15.455-1.261-16.031,6.375c-0.608,3.478,1.638,8.892,0.094,11.188c-3.558-1.488-4.975-6.11-7.375-9
		c-4.885-17.083-9.318-34.783-17.688-50.656c-5.771-9.232-11.594-19.375-20.5-25.938c-15.439-3.253-31.684-2.49-47.438-4
		C202.442,43.107,187.791,42.804,173.154,42.782L173.154,42.782z M177.061,69.313c25.941,0.353,52.106,0.177,77.875,2.688
		c8.233,0.861,9.867,10.684,13.938,16.344c3.927,8.354,9.366,16.868,10.344,26.125c-7.069,5.154-16.861,6.109-24.906,9.656
		c-10.624,3.641-22.293,0.869-33.375,1.75c-41.853-0.099-83.735,0.574-125.562-0.312c-10.293-3.332-21.316-5.84-31.031-10.25
		c0.35-8.995,5.758-17.284,9.281-25.469c4.008-6.196,6.391-15.464,14.094-17.875C117.252,68.953,147.34,69.687,177.061,69.313z
		 M56.998,125.282c13.334,1.4,27.048,4.778,37.969,12.75c3.873,3.462,5.132,10.617,2.5,14.875
		c-9.006,3.799-20.215-0.687-28.594,4.844c-6.223,3.867-1.329,12.478-5.219,17.219c-7.341,1.496-16.012,1.238-23.031-1.656
		c-6.058-4.659-2.936-13.924-2.719-20.375C39.576,142.195,43.777,126.104,56.998,125.282z M287.967,125.376
		c9.12,1.001,13.437,11.245,15.688,19.031c1.716,8.718,5.076,18.898,0.875,27.219c-5.284,5.685-14.476,3.224-21.406,4.219
		c-3.97,1.327-5.186-2.528-5.031-5.688c0.489-5.643-0.585-13.071-7.375-14.125c-7.845-2.604-16.745-0.075-24.375-2.625
		c-4.358-6.522-0.092-16.41,7.188-18.938C264.197,129.206,275.948,125.738,287.967,125.376L287.967,125.376z"/>
</g>
<g>
</g>
<g>
</g>
<g>
</g>
<g>
</g>
<g>
</g>
<g>
</g>
<g>
</g>
<g>
</g>
<g>
</g>
<g>
</g>
<g>
</g>
<g>
</g>
<g>
</g>
<g>
</g>
<g>
</g>
</svg>
